<svg id="Capa_1" enable-background="new 0 0 497 497" height="512" viewBox="0 0 497 497" width="512" xmlns="http://www.w3.org/2000/svg"><g><path d="m82.996 368.245-28.72 34.56-45.13-36.8c-9.62-7.84-11.05-22-3.21-31.61 7.84-9.62 22-11.06 31.61-3.21z" fill="#77718c"/><path d="m414.004 368.245 28.72 34.56 45.13-36.8c9.62-7.84 11.05-22 3.21-31.61-7.84-9.62-22-11.06-31.61-3.21z" fill="#77718c"/><path d="m170.276 439.425-28.4 34.82-87.6-71.44 28.72-34.56z" fill="#c7c5cb"/><g><path d="m71.238 420.855 31.253-38.324c7.842-9.617 6.404-23.77-3.212-31.612-9.617-7.843-23.77-6.404-31.613 3.212l-31.254 38.323c-7.843 9.617-6.404 23.77 3.212 31.613 9.619 7.843 23.772 6.405 31.614-3.212z" fill="#ff748f"/></g><path d="m326.724 439.425 28.4 34.82 87.6-71.44-28.72-34.56z" fill="#c7c5cb"/><g><path d="m425.762 420.855-31.253-38.324c-7.842-9.617-6.404-23.77 3.212-31.612 9.617-7.843 23.77-6.404 31.613 3.212l31.254 38.323c7.843 9.617 6.404 23.77-3.212 31.613-9.618 7.843-23.772 6.405-31.614-3.212z" fill="#ff748f"/></g><path d="m145.904 376.778 26.714 65.978-26.714 54.244h-56.351c0-63.761 32.065-101.088 56.351-120.222z" fill="#fdd0a3"/><path d="m407.447 497h-56.351l-26.917-52.793 26.917-67.429c24.286 19.134 56.351 56.461 56.351 120.222z" fill="#fdd0a3"/><path d="m97.38 445.821c-4.828 14.764-7.827 31.735-7.827 51.179h30c0-45.721 16.488-77.847 34.772-99.423l-8.421-20.799c-22.834 17.985-39.518 41.5-48.524 69.043z" fill="#ffbd86"/><path d="m351.096 376.778v120.222h-205.192v-120.222c14.799-11.664 26.703-16.557 26.703-16.557h151.787c0 .001 11.903 4.894 26.702 16.557z" fill="#77718c"/><path d="m145.904 408.548c9.575-13.772 20.393-24.201 30-31.77 14.799-11.664 26.703-16.557 26.703-16.557h-30c-.001-.003-4.659 1.888-11.75 6.193-.709.43-1.445.88-2.201 1.356-.757.476-1.536.976-2.335 1.501-1.199.787-2.443 1.63-3.725 2.529-.855.6-1.726 1.224-2.612 1.875-1.329.976-2.691 2.01-4.079 3.103v31.77z" fill="#5c586f"/><path d="m248.5 428.365-68.615-89.657h137.23z" fill="#fdd0a3"/><circle cx="248.5" cy="188.088" fill="#ff748f" r="188.088"/><path d="m90.412 188.088c0-98.829 76.224-179.849 173.088-187.493-4.949-.39-9.95-.595-15-.595-103.878 0-188.088 84.21-188.088 188.088s84.21 188.088 188.088 188.088c5.049 0 10.051-.205 15-.595-96.864-7.644-173.088-88.664-173.088-187.493z" fill="#fd5f7e"/><path d="m110.565 118.9c-17.252 223.484 65.721 107.652 137.935 107.652s155.187 115.832 137.936-107.652z" fill="#fdd0a3"/><g><g><path d="m160.557 227.277c-4.142 0-7.5-3.358-7.5-7.5v-17.897c0-4.142 3.358-7.5 7.5-7.5s7.5 3.358 7.5 7.5v17.897c0 4.142-3.358 7.5-7.5 7.5z" fill="#423e4f"/></g><g><path d="m336.443 227.277c-4.142 0-7.5-3.358-7.5-7.5v-17.897c0-4.142 3.358-7.5 7.5-7.5s7.5 3.358 7.5 7.5v17.897c0 4.142-3.358 7.5-7.5 7.5z" fill="#423e4f"/></g></g><path d="m434.607 123.226c-3.243-9.282-7.162-18.249-11.697-26.842-3.895-7.381-11.603-11.957-19.949-11.957h-308.922c-8.346 0-16.053 4.576-19.948 11.957-4.535 8.593-8.453 17.56-11.697 26.842-5.147 14.729 5.719 30.145 21.322 30.145h329.57c15.601 0 26.468-15.415 21.321-30.145z" fill="#77718c"/><path d="m92.393 123.226c3.243-9.282 7.162-18.249 11.697-26.842 3.895-7.381 11.603-11.957 19.949-11.957h-30c-8.346 0-16.053 4.576-19.949 11.957-4.535 8.593-8.453 17.56-11.697 26.842-5.147 14.729 5.719 30.145 21.322 30.145h30c-15.602 0-26.468-15.415-21.322-30.145z" fill="#5c586f"/><path d="m300.328 63.699h-103.656c-21.148 0-38.291 17.143-38.291 38.291v33.819c0 21.148 17.143 38.291 38.291 38.291h103.657c21.148 0 38.291-17.143 38.291-38.291v-33.819c-.001-21.147-17.144-38.291-38.292-38.291z" fill="#c7c5cb"/><path d="m188.381 135.809v-33.819c0-21.147 17.143-38.291 38.291-38.291h-30c-21.148 0-38.291 17.144-38.291 38.291v33.819c0 21.148 17.143 38.291 38.291 38.291h30c-21.148.001-38.291-17.143-38.291-38.291z" fill="#b2b0bc"/></g></svg>