<svg id="Capa_1" enable-background="new 0 0 497 497" height="512" viewBox="0 0 497 497" width="512" xmlns="http://www.w3.org/2000/svg"><g><path d="m334.117 367.45h-171.234s-71.666 39.968-71.666 129.55h90.097l67.187-17.961 67.186 17.961h90.097c-.001-89.583-71.667-129.55-71.667-129.55z" fill="#77718c"/><path d="m186.883 367.45h-24s-71.666 39.968-71.666 129.55h24c0-89.583 71.666-129.55 71.666-129.55z" fill="#5c586f"/><g><path d="m141.199 497v-46.858c0-4.142 3.358-7.5 7.5-7.5s7.5 3.358 7.5 7.5v46.858z" fill="#5c586f"/></g><g><path d="m340.801 497v-46.858c0-4.142 3.358-7.5 7.5-7.5s7.5 3.358 7.5 7.5v46.858z" fill="#5c586f"/></g><path d="m248.5 429.813c-37.106 0-67.187 30.08-67.187 67.187h134.373c.001-37.106-30.08-67.187-67.186-67.187z" fill="#c7c5cb"/><path d="m248.5 461.077c-19.84 0-35.923 16.083-35.923 35.923h71.846c0-19.84-16.083-35.923-35.923-35.923z" fill="#b2b0bc"/><circle cx="248.5" cy="223.282" fill="#ffdcce" r="162.156"/><path d="m373.548 51.794c-32.009-31.999-76.212-51.794-125.048-51.794-97.663 0-176.841 79.169-176.841 176.841v126.733c0 27.529 16.119 52.508 41.202 63.85l57.994 26.224c9.512 4.301 20.292-2.655 20.292-13.094v-66.977c0-19.916-10.622-38.32-27.866-48.284l-29.359-16.963v-118.915l114.578 68.056 114.579-68.056v118.916l-29.359 16.963c-17.245 9.964-27.866 28.368-27.866 48.284v66.977c0 10.44 10.78 17.396 20.292 13.094l57.994-26.224c25.084-11.343 41.202-36.321 41.202-63.85v-126.734c-.001-48.836-19.795-93.049-51.794-125.047z" fill="#b2b0bc"/><path d="m101.659 333.574v-156.733c0-92.619 71.2-168.587 161.842-176.202-4.947-.415-9.947-.639-15.001-.639-97.663 0-176.841 79.169-176.841 176.841v126.733c0 26.281 14.697 50.228 37.854 62.215-5.06-9.767-7.854-20.768-7.854-32.215z" fill="#a19dae"/><g><path d="m248.5 218.074c-4.804 0-9.609-1.276-13.886-3.827l-151.893-90.592c-20.122-12.002-26.705-38.043-14.704-58.165 3.337-5.595 10.578-7.426 16.173-4.089l164.31 97.999 164.31-97.999c5.595-3.337 12.836-1.507 16.173 4.088 12.002 20.122 5.419 46.164-14.704 58.165l-151.892 90.592c-4.277 2.552-9.082 3.828-13.887 3.828z" fill="#77718c"/></g><g><g><path d="m171.862 242.698c-4.142 0-7.5-3.358-7.5-7.5v-16.698c0-4.142 3.358-7.5 7.5-7.5s7.5 3.358 7.5 7.5v16.698c0 4.142-3.358 7.5-7.5 7.5z" fill="#423e4f"/></g><g><path d="m325.138 242.698c-4.142 0-7.5-3.358-7.5-7.5v-16.698c0-4.142 3.358-7.5 7.5-7.5s7.5 3.358 7.5 7.5v16.698c0 4.142-3.358 7.5-7.5 7.5z" fill="#423e4f"/></g></g><g><path d="m248.5 274.138c-9.911 0-19.336-4.293-25.859-11.778-2.721-3.123-2.396-7.86.727-10.582 3.122-2.721 7.86-2.396 10.582.727 3.673 4.215 8.977 6.632 14.551 6.632s10.878-2.417 14.552-6.633c2.72-3.123 7.458-3.448 10.582-.726 3.123 2.721 3.448 7.459.726 10.582-6.525 7.485-15.95 11.778-25.861 11.778z" fill="#423e4f"/></g></g></svg>