<svg id="Capa_1" enable-background="new 0 0 497 497" height="512" viewBox="0 0 497 497" width="512" xmlns="http://www.w3.org/2000/svg"><g><path d="m40.517 207.984c0-114.683 93.301-207.984 207.983-207.984s207.983 93.301 207.983 207.984z" fill="#ffb78c"/><path d="m268.5.966c-6.584-.631-13.253-.966-20-.966-114.682 0-207.983 93.302-207.983 207.984h40c0-107.936 82.649-196.921 187.983-207.018z" fill="#ff995d"/><path d="m456.483 207.984c0 161.14-107.312 202.142-107.312 202.142h-201.343s-107.312-41.002-107.312-202.142z" fill="#ffb78c"/><path d="m80.517 207.984h-40c0 161.14 107.312 202.142 107.312 202.142h40c-.001 0-107.312-41.002-107.312-202.142z" fill="#ff995d"/><circle cx="419.972" cy="228.268" fill="#ffcabd" r="44.664"/><path d="m168.013 449.505 22.563 22.683-22.563 24.812h-62.931c0-17.738 2.069-33.53 5.456-47.495l32.301-20.72z" fill="#ff748f"/><path d="m110.538 449.505c-3.387 13.966-5.457 29.757-5.457 47.495h30c0-17.738 2.069-33.53 5.457-47.495z" fill="#fd5f7e"/><path d="m168.013 360.569 22.563 48.285-22.563 40.65h-57.475c15.294-63.062 57.475-88.935 57.475-88.935z" fill="#ffdcce"/><path d="m168.013 360.569s-42.181 25.872-57.475 88.936h30c8.016-33.053 23.417-55.885 36.26-70.134z" fill="#ffcabd"/><path d="m328.987 449.505-22.563 22.683 22.563 24.812h62.931c0-17.738-2.069-33.53-5.456-47.495l-32.301-20.72z" fill="#ff748f"/><path d="m328.987 360.569-22.563 48.285 22.563 40.65h57.475c-15.294-63.062-57.475-88.935-57.475-88.935z" fill="#ffdcce"/><path d="m168.013 360.569v136.431h65.878l14.609-11.884 26.102 11.884h54.385v-47.495-88.936z" fill="#5c586f"/><path d="m233.891 497-19.644-53.525h29.362l-7.246-41.119 66.336 65.933h-44.057l15.96 28.711z" fill="#f9f097"/><path d="m368.764 84.343c-12.048-11.721-27.24-19.835-43.79-22.773-21.025-3.732-49.232-.357-76.473 29.199-27.242-29.557-55.449-32.931-76.474-29.199-16.672 2.96-31.939 11.195-44.051 23.028-32.386 31.638-52.366 75.918-51.956 124.863.797 95.175 79.562 172.212 174.732 170.994 94.224-1.206 170.234-77.962 170.234-172.472 0-48.489-20.01-92.304-52.222-123.64z" fill="#ffdcce"/><path d="m116.02 209.461c-.41-48.945 19.57-93.226 51.955-124.863 10.533-10.29 23.452-17.854 37.605-21.6-12.207-3.365-23.674-3.182-33.554-1.428-16.672 2.96-31.939 11.195-44.051 23.028-26.576 25.962-44.787 60.442-50.243 99.023-.236-.004-.465-.018-.704-.018-24.667 0-44.664 19.997-44.664 44.665 0 24.667 19.997 44.664 44.664 44.664 4.103 0 7.791-.564 11.103-1.6 25.674 64.509 89.27 110.062 162.621 109.124 6.019-.077 11.963-.467 17.819-1.145-84.928-9.905-151.817-82.181-152.551-169.85z" fill="#ffcabd"/><path d="m361.112 146.726c-23.271-11.224-51.194-12.749-76.955-1.865-14.393 6.081-26.43 15.34-35.657 26.581-9.227-11.241-21.265-20.5-35.657-26.581-25.761-10.884-53.684-9.359-76.955 1.865-19.753 9.527-29.406 32.061-22.619 52.801 7.996 24.434 26.254 45.469 52.015 56.353 23.626 9.982 49.063 2.358 71.068-8.735 7.643-3.853 16.655-3.853 24.298 0 22.005 11.093 47.442 18.717 71.068 8.735 25.761-10.884 44.019-31.919 52.015-56.353 6.785-20.739-2.868-43.274-22.621-52.801z" fill="#ff748f"/><g><g><path d="m173.141 220.494c-4.142 0-7.5-3.358-7.5-7.5v-16.509c0-4.142 3.358-7.5 7.5-7.5s7.5 3.358 7.5 7.5v16.509c0 4.142-3.358 7.5-7.5 7.5z" fill="#423e4f"/></g><g><path d="m323.859 220.494c-4.142 0-7.5-3.358-7.5-7.5v-16.509c0-4.142 3.358-7.5 7.5-7.5s7.5 3.358 7.5 7.5v16.509c0 4.142-3.358 7.5-7.5 7.5z" fill="#423e4f"/></g></g><g><path d="m248.5 289.361c-8.763 0-17.096-3.795-22.863-10.412-2.721-3.123-2.396-7.86.727-10.582 3.123-2.721 7.86-2.396 10.582.727 2.917 3.347 7.128 5.267 11.554 5.267s8.637-1.919 11.554-5.267c2.721-3.123 7.459-3.448 10.582-.727s3.448 7.459.727 10.582c-5.767 6.617-14.1 10.412-22.863 10.412z" fill="#423e4f"/></g></g></svg>