<svg id="Capa_1" enable-background="new 0 0 497 497" height="512" viewBox="0 0 497 497" width="512" xmlns="http://www.w3.org/2000/svg"><g><path d="m146.919 323.579s-45.023-1.589-85.968-16.479c-11.64-4.233-24.133 3.442-25.465 15.755-4.525 41.816.557 123.929 103.378 148.058l59.109-74.831v-60.053z" fill="#f9f097"/><path d="m55.486 312.854c.262-2.42.96-4.658 1.994-6.665-10.533-1.753-20.793 5.571-21.994 16.665-4.525 41.816.557 123.929 103.378 148.058l9.976-12.629c-93.119-26.975-97.727-105.017-93.354-145.429z" fill="#fccb88"/><g><path d="m162.661 406.438c-.447 0-.9-.041-1.356-.124-1.488-.272-36.68-6.948-56.818-31.8-2.607-3.218-2.113-7.941 1.105-10.549s7.941-2.112 10.549 1.105c16.592 20.476 47.562 26.432 47.872 26.489 4.068.756 6.761 4.665 6.011 8.734-.667 3.615-3.816 6.145-7.363 6.145z" fill="#fccb88"/></g><g><path d="m143.886 439.495c-.447 0-.9-.041-1.356-.124-1.488-.272-36.68-6.948-56.818-31.8-2.607-3.218-2.113-7.941 1.105-10.549s7.941-2.112 10.549 1.105c16.592 20.476 47.562 26.432 47.872 26.489 4.068.756 6.761 4.665 6.011 8.734-.667 3.615-3.816 6.145-7.363 6.145z" fill="#fccb88"/></g><path d="m350.081 323.579s45.023-1.589 85.968-16.479c11.64-4.233 24.133 3.442 25.465 15.755 4.525 41.816-.557 123.929-103.378 148.058l-59.109-74.831v-60.053z" fill="#ff748f"/><g><path d="m334.338 406.438c-3.552 0-6.708-2.534-7.369-6.153-.744-4.071 1.95-7.975 6.019-8.725.311-.058 31.28-6.014 47.872-26.489 2.607-3.217 7.328-3.713 10.549-1.105 3.219 2.608 3.713 7.331 1.105 10.549-20.139 24.852-55.33 31.528-56.818 31.8-.457.082-.911.123-1.358.123z" fill="#fd5f7e"/></g><g><path d="m353.113 439.495c-3.552 0-6.708-2.534-7.369-6.153-.744-4.071 1.95-7.975 6.019-8.725.311-.058 31.28-6.014 47.872-26.489 2.608-3.217 7.328-3.714 10.549-1.105 3.219 2.608 3.713 7.331 1.105 10.549-20.139 24.852-55.33 31.528-56.818 31.8-.456.083-.91.123-1.358.123z" fill="#fd5f7e"/></g><path d="m248.5 363.836 27.327 64.458-27.327 64.458h-128.382c0-89.346 56.7-128.917 56.7-128.917h71.682z" fill="#ff748f"/><path d="m197.818 363.835h-21s-56.7 39.571-56.7 128.917h21c-.001-89.346 56.7-128.917 56.7-128.917z" fill="#fd5f7e"/><path d="m376.883 492.752h-128.383v-128.916h71.682s56.701 39.57 56.701 128.916z" fill="#f9f097"/><g><path d="m164 492.752v-43.68c0-4.142 3.357-7.5 7.5-7.5s7.5 3.358 7.5 7.5v43.68z" fill="#fd5f7e"/></g><g><path d="m318 492.752v-43.68c0-4.142 3.357-7.5 7.5-7.5s7.5 3.358 7.5 7.5v43.68z" fill="#fccb88"/></g><circle cx="248.5" cy="191.165" fill="#5bd6fd" r="186.917"/><path d="m91.583 191.165c0-98.181 75.7-178.676 171.917-186.317-4.949-.393-9.95-.6-15-.6-103.232 0-186.917 83.686-186.917 186.917s83.686 186.917 186.917 186.917c5.05 0 10.051-.207 15-.6-96.217-7.641-171.917-88.136-171.917-186.317z" fill="#00c4fc"/><path d="m133.244 208.323c0 63.654 51.602 115.256 115.256 115.256s115.256-51.602 115.256-115.256l-115.256-47.699z" fill="#da9d81"/><path d="m496.852 103.17c1.203-6.607-5.158-12.017-11.499-9.807-20.634 7.188-35.449 4.786-35.449 4.786 32.018-23.101 43.019-51.883 46.736-67.04 1.329-5.419-2.736-10.649-8.314-10.778-150.821-3.493-211.228 61.123-231.298 86.778-4.329 5.534-12.727 5.534-17.057 0-20.07-25.656-80.477-90.272-231.298-86.778-5.578.129-9.643 5.36-8.314 10.778 3.717 15.157 14.718 43.938 46.736 67.04 0 0-14.815 2.402-35.449-4.786-6.342-2.209-12.703 3.2-11.499 9.807 3.491 19.166 14.428 51.848 48.683 72.479 0 0-11.323 5.272-32.388 1.865-6.362-1.029-11.624 4.989-9.729 11.149 4.289 13.938 14.072 35.378 35.774 50.883 10.111 7.223 21.727 12.06 33.875 14.674 76.051 16.361 135.192-21.731 159.753-41.531 7.219-5.82 17.549-5.82 24.768 0 24.561 19.8 83.702 57.893 159.753 41.531 12.148-2.613 23.764-7.45 33.875-14.674 21.703-15.505 31.485-36.945 35.774-50.883 1.896-6.16-3.367-12.178-9.729-11.149-21.065 3.407-32.388-1.865-32.388-1.865 34.256-20.631 45.194-53.313 48.684-72.479z" fill="#e8e8e8"/><g><g><path d="m153.924 198.356c-4.143 0-7.5-3.358-7.5-7.5v-20.219c0-4.142 3.357-7.5 7.5-7.5s7.5 3.358 7.5 7.5v20.219c0 4.142-3.358 7.5-7.5 7.5z" fill="#423e4f"/></g><g><path d="m343.076 198.356c-4.143 0-7.5-3.358-7.5-7.5v-20.219c0-4.142 3.357-7.5 7.5-7.5s7.5 3.358 7.5 7.5v20.219c0 4.142-3.357 7.5-7.5 7.5z" fill="#423e4f"/></g></g><g><path d="m248.5 266.539c-8.9 0-17.364-3.854-23.222-10.575-2.722-3.123-2.396-7.86.727-10.582 3.121-2.721 7.859-2.396 10.582.727 3.008 3.451 7.35 5.431 11.913 5.431s8.905-1.979 11.913-5.431c2.722-3.123 7.458-3.447 10.582-.727 3.122 2.722 3.448 7.459.727 10.582-5.858 6.721-14.322 10.575-23.222 10.575z" fill="#423e4f"/></g><path d="m53.218 21.366c-13.895-1.01-28.715-1.402-44.544-1.035-5.578.129-9.643 5.36-8.314 10.779 3.717 15.157 14.718 43.938 46.736 67.04 0 0-14.815 2.402-35.449-4.786-6.342-2.209-12.703 3.2-11.5 9.807 3.491 19.166 14.428 51.848 48.683 72.479 0 0-11.323 5.271-32.388 1.865-6.362-1.029-11.624 4.989-9.729 11.149 4.289 13.938 14.072 35.378 35.774 50.883 10.111 7.223 21.727 12.06 33.875 14.674 9.786 2.105 19.289 3.303 28.477 3.76-52.212-77.139-53.281-193.268-51.621-236.615z" fill="#dadad8"/></g></svg>